G04*
G04 #@! TF.GenerationSoftware,Altium Limited,Altium Designer,25.5.2 (35)*
G04*
G04 Layer_Physical_Order=2*
G04 Layer_Color=16711680*
%FSLAX44Y44*%
%MOMM*%
G71*
G04*
G04 #@! TF.SameCoordinates,2BC97BB2-2E63-4695-AD16-250A8A04C011*
G04*
G04*
G04 #@! TF.FilePolarity,Positive*
G04*
G01*
G75*
G36*
X130000Y734902D02*
X130483D01*
X131430Y734714D01*
X132322Y734344D01*
X133125Y733808D01*
X133808Y733125D01*
X134344Y732322D01*
X134714Y731430D01*
X134902Y730483D01*
Y730000D01*
D01*
X134902Y710000D01*
X134927Y709875D01*
X134908Y709750D01*
X134957Y708770D01*
X135048Y708403D01*
Y708025D01*
X135431Y706103D01*
X135623Y705639D01*
X135721Y705146D01*
X136471Y703335D01*
X136750Y702918D01*
X136942Y702454D01*
X138031Y700824D01*
X138386Y700469D01*
X138665Y700051D01*
X140051Y698665D01*
X140469Y698386D01*
X140824Y698031D01*
X142454Y696942D01*
X142918Y696750D01*
X143335Y696471D01*
X145146Y695721D01*
X145639Y695623D01*
X146103Y695431D01*
X148025Y695048D01*
X148403D01*
X148770Y694956D01*
X149750Y694908D01*
X149875Y694927D01*
X150000Y694902D01*
X950000Y694902D01*
X950125Y694927D01*
X950250Y694908D01*
X951230Y694957D01*
X951597Y695048D01*
X951975D01*
X953897Y695431D01*
X954361Y695623D01*
X954854Y695721D01*
X956665Y696471D01*
X957082Y696750D01*
X957546Y696942D01*
X959176Y698031D01*
X959531Y698386D01*
X959949Y698665D01*
X961335Y700051D01*
X961614Y700469D01*
X961969Y700824D01*
X963058Y702454D01*
X963250Y702918D01*
X963529Y703335D01*
X964279Y705146D01*
X964377Y705639D01*
X964569Y706103D01*
X964952Y708025D01*
Y708403D01*
X965043Y708770D01*
X965092Y709750D01*
X965073Y709875D01*
X965098Y710000D01*
Y730000D01*
Y730483D01*
X965286Y731430D01*
X965656Y732322D01*
X966192Y733125D01*
X966875Y733808D01*
X967678Y734344D01*
X968570Y734714D01*
X969517Y734902D01*
X1050483D01*
X1051430Y734714D01*
X1052322Y734344D01*
X1053125Y733808D01*
X1053808Y733125D01*
X1054344Y732322D01*
X1054714Y731430D01*
X1054902Y730483D01*
Y730000D01*
D01*
X1054902Y710000D01*
X1054927Y709875D01*
X1054908Y709750D01*
X1054957Y708770D01*
X1055048Y708403D01*
Y708025D01*
X1055431Y706103D01*
X1055623Y705639D01*
X1055721Y705146D01*
X1056471Y703335D01*
X1056750Y702918D01*
X1056942Y702454D01*
X1058031Y700824D01*
X1058386Y700469D01*
X1058665Y700051D01*
X1060051Y698665D01*
X1060469Y698386D01*
X1060824Y698031D01*
X1062454Y696942D01*
X1062918Y696750D01*
X1063335Y696471D01*
X1065146Y695721D01*
X1065639Y695623D01*
X1066103Y695431D01*
X1068025Y695048D01*
X1068403D01*
X1068770Y694956D01*
X1069750Y694908D01*
X1069875Y694927D01*
X1070000Y694902D01*
X1094902Y694902D01*
X1094902Y5098D01*
X5098D01*
X5098Y694902D01*
X30000Y694902D01*
X30124Y694927D01*
X30250Y694908D01*
X31230Y694957D01*
X31597Y695048D01*
X31975D01*
X33897Y695431D01*
X34361Y695623D01*
X34854Y695721D01*
X36665Y696471D01*
X37082Y696750D01*
X37546Y696942D01*
X39176Y698031D01*
X39531Y698386D01*
X39949Y698665D01*
X41335Y700051D01*
X41614Y700469D01*
X41969Y700824D01*
X43058Y702454D01*
X43250Y702918D01*
X43529Y703335D01*
X44279Y705146D01*
X44377Y705639D01*
X44569Y706103D01*
X44952Y708025D01*
Y708403D01*
X45044Y708770D01*
X45092Y709750D01*
X45073Y709875D01*
X45098Y710000D01*
X45098Y730000D01*
Y730483D01*
X45286Y731430D01*
X45656Y732322D01*
X46192Y733125D01*
X46875Y733808D01*
X47678Y734344D01*
X48570Y734714D01*
X49517Y734902D01*
X50000D01*
X130000Y734902D01*
D02*
G37*
%LPC*%
G36*
X1051970Y75098D02*
X1048030D01*
X1047538Y75000D01*
X1047036D01*
X1043172Y74231D01*
X1042708Y74039D01*
X1042215Y73941D01*
X1038576Y72434D01*
X1038158Y72155D01*
X1037694Y71963D01*
X1034418Y69774D01*
X1034063Y69419D01*
X1033646Y69140D01*
X1030860Y66354D01*
X1030581Y65937D01*
X1030226Y65581D01*
X1028037Y62306D01*
X1027845Y61842D01*
X1027566Y61424D01*
X1026059Y57785D01*
X1025961Y57292D01*
X1025769Y56828D01*
X1025000Y52964D01*
Y52462D01*
X1024902Y51970D01*
Y50000D01*
Y48030D01*
X1025000Y47538D01*
Y47036D01*
X1025769Y43172D01*
X1025961Y42708D01*
X1026059Y42215D01*
X1027566Y38575D01*
X1027845Y38158D01*
X1028037Y37694D01*
X1030226Y34418D01*
X1030581Y34063D01*
X1030860Y33646D01*
X1033646Y30860D01*
X1034063Y30581D01*
X1034418Y30226D01*
X1037694Y28037D01*
X1038158Y27845D01*
X1038576Y27566D01*
X1042215Y26059D01*
X1042708Y25961D01*
X1043172Y25769D01*
X1047036Y25000D01*
X1047538D01*
X1048030Y24902D01*
X1051970D01*
X1052462Y25000D01*
X1052964D01*
X1056828Y25769D01*
X1057292Y25961D01*
X1057785Y26059D01*
X1061424Y27566D01*
X1061842Y27845D01*
X1062306Y28037D01*
X1065582Y30226D01*
X1065937Y30581D01*
X1066354Y30860D01*
X1069140Y33646D01*
X1069419Y34063D01*
X1069774Y34418D01*
X1071963Y37694D01*
X1072155Y38158D01*
X1072434Y38575D01*
X1073941Y42215D01*
X1074039Y42708D01*
X1074231Y43172D01*
X1075000Y47036D01*
Y47538D01*
X1075098Y48030D01*
Y50000D01*
Y51970D01*
X1075000Y52462D01*
Y52964D01*
X1074231Y56828D01*
X1074039Y57292D01*
X1073941Y57785D01*
X1072434Y61424D01*
X1072155Y61842D01*
X1071963Y62306D01*
X1069774Y65581D01*
X1069419Y65936D01*
X1069140Y66354D01*
X1066354Y69140D01*
X1065937Y69419D01*
X1065582Y69774D01*
X1062306Y71963D01*
X1061842Y72155D01*
X1061424Y72434D01*
X1057785Y73941D01*
X1057292Y74039D01*
X1056828Y74231D01*
X1052964Y75000D01*
X1052462D01*
X1051970Y75098D01*
D02*
G37*
G36*
X51970D02*
X48030D01*
X47538Y75000D01*
X47036D01*
X43172Y74231D01*
X42708Y74039D01*
X42215Y73941D01*
X38575Y72434D01*
X38158Y72155D01*
X37694Y71963D01*
X34418Y69774D01*
X34063Y69419D01*
X33646Y69140D01*
X30860Y66354D01*
X30581Y65937D01*
X30226Y65581D01*
X28037Y62306D01*
X27845Y61842D01*
X27566Y61424D01*
X26059Y57785D01*
X25961Y57292D01*
X25769Y56828D01*
X25000Y52964D01*
Y52462D01*
X24902Y51970D01*
Y50000D01*
Y48030D01*
X25000Y47538D01*
Y47036D01*
X25769Y43172D01*
X25961Y42708D01*
X26059Y42215D01*
X27566Y38575D01*
X27845Y38158D01*
X28037Y37694D01*
X30226Y34418D01*
X30581Y34063D01*
X30860Y33646D01*
X33646Y30860D01*
X34063Y30581D01*
X34418Y30226D01*
X37694Y28037D01*
X38158Y27845D01*
X38575Y27566D01*
X42215Y26059D01*
X42708Y25961D01*
X43172Y25769D01*
X47036Y25000D01*
X47538D01*
X48030Y24902D01*
X51970D01*
X52462Y25000D01*
X52964D01*
X56828Y25769D01*
X57292Y25961D01*
X57785Y26059D01*
X61424Y27566D01*
X61842Y27845D01*
X62306Y28037D01*
X65581Y30226D01*
X65936Y30581D01*
X66354Y30860D01*
X69140Y33646D01*
X69419Y34063D01*
X69774Y34418D01*
X71963Y37694D01*
X72155Y38158D01*
X72434Y38575D01*
X73941Y42215D01*
X74039Y42708D01*
X74231Y43172D01*
X75000Y47036D01*
Y47538D01*
X75098Y48030D01*
Y50000D01*
Y51970D01*
X75000Y52462D01*
Y52964D01*
X74231Y56828D01*
X74039Y57292D01*
X73941Y57785D01*
X72434Y61424D01*
X72155Y61842D01*
X71963Y62306D01*
X69774Y65581D01*
X69419Y65936D01*
X69140Y66354D01*
X66354Y69140D01*
X65937Y69419D01*
X65581Y69774D01*
X62306Y71963D01*
X61842Y72155D01*
X61424Y72434D01*
X57785Y73941D01*
X57292Y74039D01*
X56828Y74231D01*
X52964Y75000D01*
X52462D01*
X51970Y75098D01*
D02*
G37*
%LPD*%
M02*
