G04*
G04 #@! TF.GenerationSoftware,Altium Limited,Altium Designer,25.5.2 (35)*
G04*
G04 Layer_Color=8388736*
%FSLAX44Y44*%
%MOMM*%
G71*
G04*
G04 #@! TF.SameCoordinates,19513C88-0B28-4B0A-A3A8-69311CDAC71F*
G04*
G04*
G04 #@! TF.FilePolarity,Negative*
G04*
G01*
G75*
G36*
X40000Y710000D02*
X40000Y730000D01*
X40000Y730985D01*
X40384Y732917D01*
X41138Y734737D01*
X42232Y736375D01*
X43625Y737767D01*
X45263Y738862D01*
X47083Y739616D01*
X49015Y740000D01*
X50000Y740000D01*
X50000Y740000D01*
X130000Y740000D01*
X130985Y740000D01*
X132917Y739616D01*
X134737Y738862D01*
X136375Y737767D01*
X137767Y736375D01*
X138862Y734737D01*
X139616Y732917D01*
X140000Y730985D01*
X140000Y730000D01*
X140000Y730000D01*
X140000Y710000D01*
X40000D01*
D02*
G37*
G36*
X960000Y710000D02*
Y730000D01*
X960000Y730985D01*
X960384Y732917D01*
X961138Y734737D01*
X962233Y736375D01*
X963625Y737767D01*
X965263Y738862D01*
X967083Y739616D01*
X969015Y740000D01*
X970000D01*
X970000Y740000D01*
X1050000D01*
X1050985Y740000D01*
X1052917Y739616D01*
X1054737Y738862D01*
X1056375Y737767D01*
X1057767Y736375D01*
X1058862Y734737D01*
X1059616Y732917D01*
X1060000Y730985D01*
X1060000Y730000D01*
X1060000D01*
X1060000Y710000D01*
X960000Y710000D01*
D02*
G37*
M02*
