G04*
G04 #@! TF.GenerationSoftware,Altium Limited,Altium Designer,25.5.2 (35)*
G04*
G04 Layer_Color=16711935*
%FSLAX44Y44*%
%MOMM*%
G71*
G04*
G04 #@! TF.SameCoordinates,19513C88-0B28-4B0A-A3A8-69311CDAC71F*
G04*
G04*
G04 #@! TF.FilePolarity,Positive*
G04*
G01*
G75*
%ADD10C,0.1000*%
D10*
X140000Y730000D02*
G03*
X130000Y740000I-10000J0D01*
G01*
X50000Y740000D02*
G03*
X40000Y730000I0J-10000D01*
G01*
X970000Y740000D02*
G03*
X960000Y730000I0J-10000D01*
G01*
X1060000Y730000D02*
G03*
X1050000Y740000I-10000J0D01*
G01*
X30000Y700000D02*
G03*
X40000Y710000I0J10000D01*
G01*
X140000Y710000D02*
G03*
X150000Y700000I10000J0D01*
G01*
X950000Y700000D02*
G03*
X960000Y710000I0J10000D01*
G01*
X1060000Y710000D02*
G03*
X1070000Y700000I10000J0D01*
G01*
X140000Y730000D02*
X140000Y710000D01*
X50000Y740000D02*
X130000Y740000D01*
X40000Y710000D02*
Y730000D01*
X960000Y710000D02*
Y730000D01*
X970000Y740000D02*
X1050000Y740000D01*
X1060000Y730000D02*
X1060000Y710000D01*
X960000Y710000D02*
X960000Y710000D01*
X0Y700000D02*
X30000D01*
X150000D02*
X950000D01*
X1070000Y700000D02*
X1100000Y700000D01*
X0Y0D02*
X1100000D01*
X-0Y700000D02*
X0Y0D01*
X1100000Y700000D02*
X1100000Y0D01*
M02*
